<svg width="1041" height="1039" xmlns="http://www.w3.org/2000/svg" xmlns:xlink="http://www.w3.org/1999/xlink" xml:space="preserve" overflow="hidden"><defs><clipPath id="clip0"><rect x="2163" y="413" width="1041" height="1039"/></clipPath><clipPath id="clip1"><rect x="2162" y="611" width="1043" height="642"/></clipPath><clipPath id="clip2"><rect x="2162" y="611" width="1043" height="642"/></clipPath><clipPath id="clip3"><rect x="2162" y="328" width="1321" height="925"/></clipPath><clipPath id="clip4"><rect x="2162" y="328" width="1321" height="925"/></clipPath></defs><g clip-path="url(#clip0)" transform="translate(-2163 -413)"><g clip-path="url(#clip1)"><g clip-path="url(#clip2)"><g clip-path="url(#clip3)"><g clip-path="url(#clip4)"><path d="M0 0 281.792 446.562" stroke="#F4B183" stroke-width="94.4818" stroke-miterlimit="8" fill="none" fill-rule="evenodd" transform="matrix(0.982659 0.185424 0.185351 -0.983041 2197.94 1220.73)"/><path d="M6265.74 3261.26 6537.16 3539.65" stroke="#F4B183" stroke-width="94.4805" stroke-miterlimit="8" fill="none" fill-rule="evenodd" transform="matrix(1 0 0 1.00039 -3760.07 -2438.33)"/><path d="M39.0516-26.5835 284.792 334.412 206.688 387.578-39.0516 26.5835ZM336.311 242.194 378.659 556.254 102.002 401.695Z" fill="#F4B183" transform="matrix(0.982659 0.185424 0.185351 -0.983041 2720.71 1092.08)"/></g></g></g></g></g></svg>